<?xml version="1.0" standalone="no"?>
<!DOCTYPE svg PUBLIC "-//W3C//DTD SVG 20010904//EN"
 "http://www.w3.org/TR/2001/REC-SVG-20010904/DTD/svg10.dtd">
<svg version="1.0" xmlns="http://www.w3.org/2000/svg"
 width="164.000000pt" height="155.000000pt" viewBox="0 0 164.000000 155.000000"
 preserveAspectRatio="xMidYMid meet">

<g transform="translate(0.000000,155.000000) scale(0.100000,-0.100000)"
fill="#000000" stroke="none">
<path d="M142 1011 l-34 -29 1 -216 c0 -119 3 -221 6 -226 7 -11 253 -14 303
-4 17 4 48 20 68 38 l36 31 -164 0 -163 0 -3 218 c-1 119 -6 217 -10 217 -4
-1 -22 -14 -40 -29z"/>
<path d="M658 1011 c-34 -30 -38 -38 -38 -82 0 -37 4 -51 19 -58 10 -6 21 -8
24 -5 3 3 15 1 26 -6 18 -9 21 -20 21 -70 l0 -60 35 0 35 0 0 100 0 100 -29 0
c-37 0 -49 15 -53 70 l-3 44 -37 -33z"/>
<path d="M1082 1007 c-27 -27 -32 -41 -32 -79 0 -53 5 -58 63 -65 23 -2 45 -8
49 -11 4 -4 9 -77 10 -162 l3 -155 63 -3 c58 -3 66 -1 105 30 l41 33 -64 5
-65 5 -5 160 -5 160 -45 3 c-58 4 -70 16 -70 68 0 24 -4 44 -8 44 -4 0 -22
-15 -40 -33z"/>
<path d="M340 920 c0 -26 3 -30 29 -30 53 0 50 53 -3 58 -23 1 -26 -2 -26 -28z"/>
<path d="M940 910 c0 -25 11 -25 41 0 l24 19 -32 1 c-26 0 -33 -4 -33 -20z"/>
<path d="M1400 894 l0 -35 31 18 c17 10 37 26 46 36 15 16 13 17 -30 17 l-47
0 0 -36z"/>
<path d="M342 748 c3 -29 7 -33 33 -34 45 -2 55 5 55 37 0 28 -2 29 -46 29
-45 0 -45 0 -42 -32z"/>
<path d="M652 671 c-28 -26 -32 -36 -32 -79 0 -36 4 -52 16 -56 9 -3 76 -6
151 -6 l135 0 41 32 41 33 -149 5 -150 5 -3 48 c-2 26 -6 47 -10 47 -4 0 -22
-13 -40 -29z"/>
</g>
</svg>
